<svg width="320" height="260" viewBox="0 0 320 260" xmlns="http://www.w3.org/2000/svg" role="img" aria-labelledby="title desc">
  <title id="title">Champion bird bodybuilder</title>
  <desc id="desc">A massive purple bird flexing with cosmic energy and holding a barbell.</desc>
  <defs>
    <linearGradient id="bodyPurple" x1="0" x2="0" y1="0" y2="1">
      <stop offset="0%" stop-color="#c39bff" />
      <stop offset="100%" stop-color="#8452e3" />
    </linearGradient>
    <radialGradient id="glow" cx="0.5" cy="0.3" r="0.8">
      <stop offset="0%" stop-color="#ffe8a3" stop-opacity="0.95" />
      <stop offset="100%" stop-color="#ff7a59" stop-opacity="0" />
    </radialGradient>
  </defs>
  <rect width="320" height="260" rx="52" fill="#eae5ff" />
  <circle cx="160" cy="110" r="120" fill="url(#glow)" opacity="0.6" />
  <g transform="translate(36 20)">
    <ellipse cx="124" cy="206" rx="118" ry="36" fill="#432b7a" opacity="0.18" />
    <path d="M62 168 C12 138 18 82 70 72 L104 148 Z" fill="#9d77f4" />
    <path d="M214 168 C264 138 258 82 206 72 L172 148 Z" fill="#9d77f4" />
    <ellipse cx="124" cy="126" rx="108" ry="118" fill="url(#bodyPurple)" />
    <path d="M92 82 Q124 64 156 82" stroke="#271c3f" stroke-width="10" stroke-linecap="round" fill="none" />
    <circle cx="96" cy="110" r="10" fill="#271c3f" />
    <circle cx="152" cy="110" r="10" fill="#271c3f" />
    <path d="M124 122 L142 148 L106 148 Z" fill="#ffcf6b" />
    <path d="M84 182 C112 210 136 210 164 182" stroke="#271c3f" stroke-width="10" stroke-linecap="round" fill="none" />
    <rect x="96" y="52" width="60" height="16" rx="8" fill="#2c2f3a" />
    <rect x="86" y="42" width="80" height="10" rx="5" fill="#ff7a59" />
    <g transform="translate(-10 130)">
      <rect x="-10" y="30" width="20" height="58" rx="10" fill="#2c2f3a" />
      <rect x="-32" y="20" width="64" height="20" rx="10" fill="#2c2f3a" />
      <circle cx="0" cy="30" r="10" fill="#ffcf6b" />
    </g>
    <g transform="translate(258 130)">
      <rect x="-10" y="30" width="20" height="58" rx="10" fill="#2c2f3a" />
      <rect x="-32" y="20" width="64" height="20" rx="10" fill="#2c2f3a" />
      <circle cx="0" cy="30" r="10" fill="#ffcf6b" />
    </g>
    <g transform="translate(124 186)">
      <rect x="-32" y="-14" width="64" height="28" rx="14" fill="#2c2f3a" />
      <rect x="-100" y="-6" width="200" height="12" rx="6" fill="#2c2f3a" />
      <circle cx="-116" cy="0" r="16" fill="#ffcf6b" />
      <circle cx="116" cy="0" r="16" fill="#ffcf6b" />
      <circle cx="-130" cy="0" r="10" fill="#ff7a59" />
      <circle cx="130" cy="0" r="10" fill="#ff7a59" />
    </g>
    <g transform="translate(124 14)">
      <path d="M0 -8 L16 12 L-16 12 Z" fill="#ffe8a3" />
      <path d="M0 -38 C10 -26 20 -14 0 10 C-20 -14 -10 -26 0 -38Z" fill="#ff7a59" />
    </g>
  </g>
</svg>
